<?xml version="1.0" encoding="utf-8"?>
<!-- Generator: Adobe Illustrator 15.0.0, SVG Export Plug-In . SVG Version: 6.00 Build 0)  -->
<!DOCTYPE svg PUBLIC "-//W3C//DTD SVG 1.1//EN" "http://www.w3.org/Graphics/SVG/1.1/DTD/svg11.dtd">
<svg version="1.1" id="Layer_1" xmlns="http://www.w3.org/2000/svg" xmlns:xlink="http://www.w3.org/1999/xlink" x="0px" y="0px"
	 width="1121.886px" height="120.895px" viewBox="0 0 1121.886 120.895" enable-background="new 0 0 1121.886 120.895"
	 xml:space="preserve">
<g>
	<path fill="#7399C6" d="M1121.886,120.895C938.194,105.687,750.98,97.847,560.932,97.847c-190.025,0-377.247,7.84-560.932,23.048
		H1121.886"/>
	<g>
		<path fill="#FFFFFF" d="M437.852,33.033c0,15.866,11.171,32.819,42.525,32.819c18.863,0,31.74-5.696,39.365-17.414l1.38-2.208
			l-10.521-4.266l-0.674,1.046c-5.729,8.884-15.409,13.388-28.771,13.388c-19.362,0-31.39-8.597-31.39-22.436
			c0-16.027,10.872-24.853,30.612-24.853c9.983,0,23.048,2.272,28.6,13.096l0.616,1.201l10.364-3.98l-0.791-1.498
			C513.239,6.703,498.704,0,480.285,0C454.111,0,437.852,12.658,437.852,33.033z"/>
	</g>
	<path fill="#FFFFFF" d="M75.162,1.481H31.563v62.875h11.711c0,0,0-22.868,0-25.531c2.742,0,31.887,0,31.887,0
		c19.429,0,29.281-6.297,29.281-18.716C104.442,7.749,94.591,1.481,75.162,1.481z M72.898,29.396c0,0-26.901,0-29.624,0V10.899
		c2.723,0,29.624,0,29.624,0c16.8,0,20.242,3.718,20.242,9.301C93.141,25.72,89.698,29.396,72.898,29.396z"/>
	<g>
		<path fill="#FFFFFF" d="M170.12,1.481v62.875h68.228v-9.41c0,0-53.677,0-56.525,0c0-2.405,0-16.104,0-18.51
			c2.814,0,46.24,0,46.24,0v-9.436c0,0-43.426,0-46.24,0c0-2.334,0-13.767,0-16.102c2.845,0,55.336,0,55.336,0V1.481H170.12z"/>
	</g>
	<path fill="#FFFFFF" d="M345.585,1.481h-12.341l-38.816,62.875h13.239c0,0,8.585-14.252,9.382-15.574h44.631
		c0.794,1.331,9.296,15.574,9.296,15.574h13.329L345.585,1.481z M322.802,39.358c2.184-3.647,14.55-24.302,16.626-27.769
		c2.076,3.467,14.439,24.122,16.623,27.769H322.802z"/>
	<path fill="#FFFFFF" d="M624.188,0c-26.088,0-43.616,13.383-43.616,33.302c0,22.363,22.609,32.549,43.616,32.549
		c20.994,0,43.59-10.186,43.59-32.549C667.777,13.383,650.26,0,624.188,0z M624.188,56.399c-7.438,0-31.709-1.762-31.709-24.434
		c0-13.457,13.039-22.855,31.709-22.855c18.658,0,31.69,9.398,31.69,22.855C655.878,49.981,639.508,56.399,624.188,56.399z"/>
	<g>
		<path fill="#FFFFFF" d="M726.641,33.033c0,15.866,11.17,32.819,42.52,32.819c18.864,0,31.737-5.696,39.354-17.414l1.396-2.203
			l-10.532-4.27l-0.675,1.045c-5.734,8.884-15.416,13.389-28.774,13.389c-19.362,0-31.391-8.597-31.391-22.436
			c0-16.027,10.875-24.853,30.621-24.853c9.978,0,23.036,2.272,28.592,13.096l0.615,1.201l10.368-3.98l-0.791-1.499
			C802.016,6.703,787.48,0,769.062,0C742.896,0,726.641,12.658,726.641,33.033z"/>
	</g>
	<g>
		<path fill="#FFFFFF" d="M942.107,1.481c0,0-30.677,25.498-31.487,26.171c-0.944,0.002-15.417,0.037-17.918,0.042
			c0-2.677,0-26.213,0-26.213h-11.688v62.875h11.688c0,0,0-23.48,0-26.144c2.507-0.007,17.583-0.052,18.461-0.055
			c0.783,0.58,35.378,26.201,35.378,26.201l17.341-0.062c0,0-39.685-29.605-42.472-31.685c2.616-2.249,36.213-31.129,36.213-31.129
			H942.107z"/>
	</g>
	<g>
		<path fill="#FFFFFF" d="M1015.776,19.453c0,14.396,19.17,15.944,36.083,17.31c13.671,1.104,26.584,2.147,26.584,9.211
			c0,7.695-13.295,10.426-24.681,10.426c-20.884,0-27.507-7.24-31.45-11.614c-0.408-0.574-0.819-1.152-0.819-1.152
			s-0.108,0.077-0.134,0.096c-0.021-0.024-0.11-0.123-0.11-0.123s-0.528,0.476-1.052,0.948c-0.14,0.099-8.144,5.786-8.144,5.786
			l1.408,1.309c6.083,5.656,15.277,14.203,39.3,14.203c27.695,0,37.563-10.269,37.563-19.878c0-16.123-19.812-17.632-37.291-18.964
			c-13.041-0.994-25.358-1.932-25.358-8.718c0-7.989,14.481-9.182,23.114-9.182c17.925,0,24.667,6.444,27.907,9.541l1.387,1.317
			l0.992-0.679l7.732-5.192l-1.096-1.283C1085.146,9.809,1074.91,0,1050.981,0C1028.279,0,1015.776,6.909,1015.776,19.453z"/>
	</g>
</g>
</svg>
